<?xml version="1.0" encoding="UTF-8"?>
<svg version="1.1" xmlns="http://www.w3.org/2000/svg" width="64" height="64">
<path d="M0 0 C0.66 0 1.32 0 2 0 C3.71519746 3.06958415 4.47793837 5.82300019 5.0703125 9.28125 C5.24433594 10.28800781 5.41835938 11.29476563 5.59765625 12.33203125 C5.77167969 13.37746094 5.94570313 14.42289063 6.125 15.5 C6.30675781 16.54542969 6.48851562 17.59085938 6.67578125 18.66796875 C7.39030736 22.86379501 8 26.73154016 8 31 C7.34 31 6.68 31 6 31 C6 36.28 6 41.56 6 47 C7.65 47.33 9.3 47.66 11 48 C11.495 47.01 11.495 47.01 12 46 C12 48.31 12 50.62 12 53 C13.32 53 14.64 53 16 53 C15.96447021 52.30028076 15.92894043 51.60056152 15.89233398 50.87963867 C15.73282561 47.64926126 15.5851065 44.41844228 15.4375 41.1875 C15.35338867 39.53717773 15.35338867 39.53717773 15.26757812 37.85351562 C14.95557679 30.80228549 15.1553075 24.00856958 16 17 C16.33 17 16.66 17 17 17 C18.00708069 28.0239368 18.10611887 38.94005573 18 50 C18.92039063 49.94972656 19.84078125 49.89945313 20.7890625 49.84765625 C25.47205542 50.06984205 26.72033859 51.79842577 30 55 C30 55.33 30 55.66 30 56 C26.04 55.67 22.08 55.34 18 55 C18 57.31 18 59.62 18 62 C17.7525 61.360625 17.505 60.72125 17.25 60.0625 C16.18437567 57.81258459 16.18437567 57.81258459 13.875 57.25 C13.25625 57.1675 12.6375 57.085 12 57 C11.505 57.99 11.505 57.99 11 59 C9.68 59 8.36 59 7 59 C6.34 59.825 5.68 60.65 5 61.5 C4.34 62.325 3.68 63.15 3 64 C-1 64 -1 64 -2.484375 62.6875 C-3.65625 61.125 -4.828125 59.5625 -6 58 C-7.98 58.495 -7.98 58.495 -10 59 C-10 58.34 -10 57.68 -10 57 C-11.94999129 57.19471111 -11.94999129 57.19471111 -14 58 C-15.28436734 59.9837767 -15.28436734 59.9837767 -16 62 C-16 59.69 -16 57.38 -16 55 C-21.94 55.495 -21.94 55.495 -28 56 C-24.25 51.125 -24.25 51.125 -22 50 C-20.00039988 49.960008 -17.99952758 49.95653201 -16 50 C-16.01740234 48.06060547 -16.01740234 48.06060547 -16.03515625 46.08203125 C-16.09525302 36.32757399 -15.99260606 26.71335927 -15 17 C-14.67 17 -14.34 17 -14 17 C-12.99174702 29.11454735 -13.13507794 40.87778462 -14 53 C-12.68 53 -11.36 53 -10 53 C-10 50.69 -10 48.38 -10 46 C-9.67 46.66 -9.34 47.32 -9 48 C-6.525 47.505 -6.525 47.505 -4 47 C-4 41.72 -4 36.44 -4 31 C-4.66 31 -5.32 31 -6 31 C-5.49567195 24.6454666 -4.6383895 18.40403857 -3.5625 12.125 C-3.44028076 11.38773682 -3.31806152 10.65047363 -3.19213867 9.89086914 C-2.55952054 6.29945615 -1.89988005 3.14179299 0 0 Z M-14 54 C-14 54.66 -14 55.32 -14 56 C-12.68 56 -11.36 56 -10 56 C-10 55.34 -10 54.68 -10 54 C-11.32 54 -12.64 54 -14 54 Z M12 54 C12 54.66 12 55.32 12 56 C13.32 56 14.64 56 16 56 C16 55.34 16 54.68 16 54 C14.68 54 13.36 54 12 54 Z " fill="#5E8297" transform="translate(31,0)"/>
<path d="M0 0 C0.33 0 0.66 0 1 0 C2.00825298 12.11454735 1.86492206 23.87778462 1 36 C2.32 36 3.64 36 5 36 C5 33.69 5 31.38 5 29 C5.33 29.66 5.66 30.32 6 31 C7.65 30.67 9.3 30.34 11 30 C11 24.72 11 19.44 11 14 C10.34 14 9.68 14 9 14 C9 12.35 9 10.7 9 9 C9.103125 9.639375 9.20625 10.27875 9.3125 10.9375 C9.539375 11.618125 9.76625 12.29875 10 13 C10.99 13.33 11.98 13.66 13 14 C12.98839844 15.12019531 12.97679688 16.24039063 12.96484375 17.39453125 C12.95546378 18.86718583 12.9463638 20.33984222 12.9375 21.8125 C12.92912109 22.55048828 12.92074219 23.28847656 12.91210938 24.04882812 C12.89740172 27.29922068 12.96468298 29.89404895 14 33 C13.01 33.495 13.01 33.495 12 34 C12 33.34 12 32.68 12 32 C11.01 32 10.02 32 9 32 C9 34.31 9 36.62 9 39 C9.99 39 10.98 39 12 39 C12.33 38.34 12.66 37.68 13 37 C13.33 37.99 13.66 38.98 14 40 C12.88625 40.144375 11.7725 40.28875 10.625 40.4375 C7.17857953 40.78372035 7.17857953 40.78372035 5 42 C5 41.34 5 40.68 5 40 C3.05000871 40.19471111 3.05000871 40.19471111 1 41 C-0.28436734 42.9837767 -0.28436734 42.9837767 -1 45 C-1 42.69 -1 40.38 -1 38 C-6.94 38.495 -6.94 38.495 -13 39 C-9.25 34.125 -9.25 34.125 -7 33 C-5.00039988 32.960008 -2.99952758 32.95653201 -1 33 C-1.01740234 31.06060547 -1.01740234 31.06060547 -1.03515625 29.08203125 C-1.09525302 19.32757399 -0.99260606 9.71335927 0 0 Z M1 37 C1 37.66 1 38.32 1 39 C2.32 39 3.64 39 5 39 C5 38.34 5 37.68 5 37 C3.68 37 2.36 37 1 37 Z " fill="#668294" transform="translate(16,17)"/>
<path d="M0 0 C0.33 0 0.66 0 1 0 C2.00708069 11.0239368 2.10611887 21.94005573 2 33 C2.92039062 32.94972656 3.84078125 32.89945313 4.7890625 32.84765625 C9.47205542 33.06984205 10.72033859 34.79842577 14 38 C14 38.33 14 38.66 14 39 C10.04 38.67 6.08 38.34 2 38 C2 40.31 2 42.62 2 45 C1.7525 44.360625 1.505 43.72125 1.25 43.0625 C0.18437567 40.81258459 0.18437567 40.81258459 -2.125 40.25 C-2.74375 40.1675 -3.3625 40.085 -4 40 C-4.33 40.66 -4.66 41.32 -5 42 C-7.92879371 41.37240135 -10.36095629 40.41377341 -13 39 C-12.34 38.34 -11.68 37.68 -11 37 C-11 37.66 -11 38.32 -11 39 C-10.01 39 -9.02 39 -8 39 C-8 36.69 -8 34.38 -8 32 C-8.99 32 -9.98 32 -11 32 C-11.33 32.66 -11.66 33.32 -12 34 C-12.33 33.34 -12.66 32.68 -13 32 C-12.67 31.34 -12.34 30.68 -12 30 C-11.76725791 27.12089412 -11.58027243 24.25853505 -11.4375 21.375 C-11.39431641 20.57320312 -11.35113281 19.77140625 -11.30664062 18.9453125 C-11.20048543 16.9637489 -11.09973145 14.98189729 -11 13 C-10.34 13 -9.68 13 -9 13 C-8.67 12.01 -8.34 11.02 -8 10 C-8 11.32 -8 12.64 -8 14 C-8.66 14 -9.32 14 -10 14 C-10 19.28 -10 24.56 -10 30 C-8.35 30.33 -6.7 30.66 -5 31 C-4.67 30.34 -4.34 29.68 -4 29 C-4 31.31 -4 33.62 -4 36 C-2.68 36 -1.36 36 0 36 C-0.03552979 35.30028076 -0.07105957 34.60056152 -0.10766602 33.87963867 C-0.26717439 30.64926126 -0.4148935 27.41844228 -0.5625 24.1875 C-0.61857422 23.08728516 -0.67464844 21.98707031 -0.73242188 20.85351562 C-1.04442321 13.80228549 -0.8446925 7.00856958 0 0 Z M-4 37 C-4 37.66 -4 38.32 -4 39 C-2.68 39 -1.36 39 0 39 C0 38.34 0 37.68 0 37 C-1.32 37 -2.64 37 -4 37 Z " fill="#678396" transform="translate(47,17)"/>
<path d="M0 0 C0.33 0 0.66 0 1 0 C1 7.92 1 15.84 1 24 C-0.65 24 -2.3 24 -4 24 C-4.21432579 17.35590042 -3.51233701 11.46794133 -2 5 C-1.34 5 -0.68 5 0 5 C0 3.35 0 1.7 0 0 Z " fill="#E0E6E9" transform="translate(30,6)"/>
<path d="M0 0 C0.33 0 0.66 0 1 0 C1 1.65 1 3.3 1 5 C1.66 5 2.32 5 3 5 C4.32388229 11.43028541 5.24794402 17.4294834 5 24 C3.35 24 1.7 24 0 24 C0 16.08 0 8.16 0 0 Z " fill="#DEE4E8" transform="translate(33,6)"/>
<path d="M0 0 C0.33 1.32 0.66 2.64 1 4 C0.34 4 -0.32 4 -1 4 C-1 9.28 -1 14.56 -1 20 C0.65 20.33 2.3 20.66 4 21 C4.33 20.34 4.66 19.68 5 19 C5 21.31 5 23.62 5 26 C4.67 24.68 4.34 23.36 4 22 C3.34 22 2.68 22 2 22 C2.33 24.64 2.66 27.28 3 30 C0 31 0 31 -2.1875 30.0625 C-3.0846875 29.5365625 -3.0846875 29.5365625 -4 29 C-3.34 28.34 -2.68 27.68 -2 27 C-2 27.66 -2 28.32 -2 29 C-1.01 29 -0.02 29 1 29 C1 26.69 1 24.38 1 22 C0.01 22 -0.98 22 -2 22 C-2.33 22.66 -2.66 23.32 -3 24 C-3.33 23.34 -3.66 22.68 -4 22 C-3.67 21.34 -3.34 20.68 -3 20 C-2.76725791 17.12089412 -2.58027243 14.25853505 -2.4375 11.375 C-2.39431641 10.57320312 -2.35113281 9.77140625 -2.30664062 8.9453125 C-2.20048543 6.9637489 -2.09973145 4.98189729 -2 3 C-1.34 3 -0.68 3 0 3 C0 2.01 0 1.02 0 0 Z " fill="#527287" transform="translate(38,27)"/>
<path d="M0 0 C0.103125 0.639375 0.20625 1.27875 0.3125 1.9375 C0.539375 2.618125 0.76625 3.29875 1 4 C1.99 4.33 2.98 4.66 4 5 C3.98839844 6.12019531 3.97679687 7.24039063 3.96484375 8.39453125 C3.95546378 9.86718583 3.9463638 11.33984222 3.9375 12.8125 C3.92912109 13.55048828 3.92074219 14.28847656 3.91210938 15.04882812 C3.89740172 18.29922068 3.96468298 20.89404895 5 24 C4.34 24.33 3.68 24.66 3 25 C3 24.34 3 23.68 3 23 C2.01 23 1.02 23 0 23 C0 25.31 0 27.62 0 30 C0.99 30 1.98 30 3 30 C3.33 29.34 3.66 28.68 4 28 C4.33 28.99 4.66 29.98 5 31 C2.625 31.625 2.625 31.625 0 32 C-2 30 -2 30 -2.1953125 28.0546875 C-2.13020833 26.03645833 -2.06510417 24.01822917 -2 22 C-0.68 21.67 0.64 21.34 2 21 C2 15.72 2 10.44 2 5 C1.34 5 0.68 5 0 5 C0 3.35 0 1.7 0 0 Z " fill="#527287" transform="translate(25,26)"/>
<path d="M0 0 C0.99 0 1.98 0 3 0 C3 5.28 3 10.56 3 16 C2.01 16 1.02 16 0 16 C0 10.72 0 5.44 0 0 Z " fill="#FFFFFF" transform="translate(33,31)"/>
<path d="M0 0 C0.99 0 1.98 0 3 0 C3 5.28 3 10.56 3 16 C2.01 16 1.02 16 0 16 C0 10.72 0 5.44 0 0 Z " fill="#FFFFFF" transform="translate(28,31)"/>
<path d="M0 0 C1.98738098 0.01761863 3.97253109 0.16698176 5.953125 0.33203125 C5.953125 1.32203125 5.953125 2.31203125 5.953125 3.33203125 C3.973125 3.33203125 1.993125 3.33203125 -0.046875 3.33203125 C-0.046875 3.99203125 -0.046875 4.65203125 -0.046875 5.33203125 C-2.026875 5.33203125 -4.006875 5.33203125 -6.046875 5.33203125 C-3.15469741 0.51173527 -3.15469741 0.51173527 0 0 Z " fill="#CCD6DC" transform="translate(9.046875,50.66796875)"/>
<path d="M0 0 C3.1875 -0.3125 3.1875 -0.3125 7 0 C9.9375 2.5 9.9375 2.5 12 5 C10.02 5 8.04 5 6 5 C6 4.34 6 3.68 6 3 C4.02 3 2.04 3 0 3 C0 2.01 0 1.02 0 0 Z " fill="#CBD5DB" transform="translate(49,51)"/>
<path d="M0 0 C1.65 0 3.3 0 5 0 C4.1875 1.9375 4.1875 1.9375 3 4 C2.01 4.33 1.02 4.66 0 5 C0 3.35 0 1.7 0 0 Z " fill="#DAE1E5" transform="translate(33,57)"/>
<path d="M0 0 C1.65 0 3.3 0 5 0 C5 1.65 5 3.3 5 5 C3.0625 4.1875 3.0625 4.1875 1 3 C0.67 2.01 0.34 1.02 0 0 Z " fill="#DAE1E5" transform="translate(26,57)"/>
<path d="M0 0 C0.99 0 1.98 0 3 0 C3 2.31 3 4.62 3 7 C2.01 7 1.02 7 0 7 C0 4.69 0 2.38 0 0 Z " fill="#FFFFFF" transform="translate(36,49)"/>
<path d="M0 0 C0.99 0 1.98 0 3 0 C3 2.31 3 4.62 3 7 C2.01 7 1.02 7 0 7 C0 4.69 0 2.38 0 0 Z " fill="#FFFFFF" transform="translate(25,49)"/>
<path d="M0 0 C1 4 1 4 1 4 Z " fill="#527287" transform="translate(43,42)"/>
<path d="M0 0 C1 4 1 4 1 4 Z " fill="#527287" transform="translate(20,42)"/>
<path d="M0 0 C1 4 1 4 1 4 Z " fill="#527287" transform="translate(44,38)"/>
<path d="M0 0 C1 4 1 4 1 4 Z " fill="#527287" transform="translate(19,38)"/>
<path d="M0 0 C1 4 1 4 1 4 Z " fill="#527287" transform="translate(45,34)"/>
<path d="M0 0 C1 4 1 4 1 4 Z " fill="#527287" transform="translate(18,34)"/>
<path d="" fill="#527287" transform="translate(0,0)"/>
<path d="" fill="#527287" transform="translate(0,0)"/>
<path d="" fill="#527287" transform="translate(0,0)"/>
<path d="" fill="#527287" transform="translate(0,0)"/>
<path d="" fill="#527287" transform="translate(0,0)"/>
<path d="" fill="#527287" transform="translate(0,0)"/>
</svg>
